<svg width="76" height="20" viewBox="0 0 76 20" fill="none" xmlns="http://www.w3.org/2000/svg">
<path d="M43.3669 0C43.7698 0 43.8504 0.0483456 43.8504 1.46648V2.77181C43.8504 4.12549 43.7375 4.28664 43.3669 4.28664H38.8385V19.5477C38.8385 19.8861 38.4034 19.9667 36.8886 19.9667H36.0828C34.5358 19.9667 34.2779 19.8861 34.2779 19.5477V4.28664H29.7496C29.3789 4.28664 29.2661 4.17383 29.2661 2.77181V1.46648C29.2661 0 29.3467 0 29.7496 0H43.3669ZM51.489 0.43511C51.489 0.145037 51.07 0 49.6035 0H48.7494C47.2023 0 46.9445 0.128922 46.9445 0.43511V19.5638C46.9445 19.9023 47.2023 19.9828 48.7494 19.9828H49.6035C51.07 19.9828 51.489 19.9023 51.489 19.5638V0.43511ZM73.599 0H72.2614C70.5532 0 70.4565 0.193382 70.3115 0.483456L67.6686 6.81673C66.7823 8.92782 65.8798 11.1839 65.5414 12.3604C65.2191 11.1839 64.6389 9.62077 63.4142 6.70392L60.7874 0.483456C60.6263 0.112806 59.9655 0 58.5152 0H57.0326C55.5661 0 55.276 0.128922 55.276 0.43511V19.5638C55.276 19.9023 55.5661 19.9828 57.0809 19.9828H57.9028C59.4015 19.9828 59.8205 19.9023 59.8205 19.5638V8.20263H59.9333C59.9333 8.20263 60.0622 8.73443 60.2878 9.21789L63.3175 16.3247C63.4464 16.647 63.6076 16.7759 65.0257 16.7759H65.9282C67.3624 16.7759 67.4752 16.6631 67.6041 16.3247L70.376 9.47573C70.6338 8.83112 70.8272 8.20263 70.8272 8.20263H70.94V19.5477C70.94 19.8861 71.2301 19.9667 72.8093 19.9667H73.6151C75.0816 19.9667 75.5006 19.8861 75.5006 19.5477V0.43511C75.5006 0.128922 75.0655 0 73.599 0Z" fill="white"/>
<path d="M22.7708 4.28664H1.16029C0.83799 4.28664 0.547917 4.15772 0.338419 3.94822C0.128922 3.73872 0 3.44865 0 3.14246V1.16029C0 0.83799 0.128922 0.564032 0.338419 0.354534C0.564032 0.128922 0.83799 0 1.16029 0H22.7708C23.0931 0 23.3832 0.128922 23.5927 0.338419C23.8022 0.547916 23.9311 0.821875 23.9311 1.14418V3.11023C23.9311 3.43254 23.8022 3.70649 23.5927 3.91599C23.3832 4.1416 23.0931 4.28664 22.7708 4.28664ZM9.57243 7.8481H1.16029C0.83799 7.8481 0.547917 7.97702 0.354534 8.18652C0.145037 8.39601 0.0161152 8.68609 0.0161152 8.99228V10.9583C0.0161152 11.2806 0.145037 11.5707 0.354534 11.7641C0.564032 11.9736 0.854106 12.1025 1.17641 12.1025H9.58854V7.8481H9.57243ZM23.5927 8.20263C23.3832 7.99313 23.0931 7.86421 22.7708 7.86421H14.3586V12.1347H22.7708C23.0931 12.1347 23.3832 12.0058 23.5927 11.7963C23.8022 11.5868 23.9311 11.2967 23.9311 10.9906V9.00839C23.9311 8.68609 23.8022 8.39601 23.5927 8.20263ZM23.5927 16.0507C23.3832 15.8412 23.0931 15.7123 22.7708 15.7123H14.3586V19.9828H22.7708C23.0931 19.9828 23.3832 19.8539 23.5927 19.6444C23.8022 19.4349 23.9311 19.1448 23.9311 18.8387V16.8726C23.9311 16.5503 23.8022 16.2602 23.5927 16.0507ZM9.57243 15.7123H1.16029C0.83799 15.7123 0.547917 15.8412 0.354534 16.0507C0.145037 16.2602 0.0161152 16.5503 0.0161152 16.8565V18.8225C0.0161152 19.1448 0.145037 19.4349 0.354534 19.6283C0.564032 19.8378 0.854106 19.9667 1.17641 19.9667H9.58854V15.7123H9.57243Z" fill="#EB0028"/>
</svg>
